<svg height="638" width="720" xmlns="http://www.w3.org/2000/svg">
<rect height="638" fill="#555" width="720"></rect>
<text fill="#7f7" font-family="Courier New" font-size="12" xml:space="preserve">
<tspan x="10" y="26">2 megabytes installed</tspan>
<tspan x="10" y="42"></tspan>
<tspan x="10" y="58">node_modules</tspan>
<tspan x="10" y="74">└─┬ mocha-bamboo-reporter@1.1.1 </tspan>
<tspan x="10" y="90">  └─┬ mocha@3.2.0 </tspan>
<tspan x="10" y="106">    ├── browser-stdout@1.3.0 </tspan>
<tspan x="10" y="122">    ├─┬ commander@2.9.0 </tspan>
<tspan x="10" y="138">    │ └── graceful-readlink@1.0.1 </tspan>
<tspan x="10" y="154">    ├─┬ debug@2.2.0 </tspan>
<tspan x="10" y="170">    │ └── ms@0.7.1 </tspan>
<tspan x="10" y="186">    ├── diff@1.4.0 </tspan>
<tspan x="10" y="202">    ├── escape-string-regexp@1.0.5 </tspan>
<tspan x="10" y="218">    ├─┬ glob@7.0.5 </tspan>
<tspan x="10" y="234">    │ ├── fs.realpath@1.0.0 </tspan>
<tspan x="10" y="250">    │ ├─┬ inflight@1.0.6 </tspan>
<tspan x="10" y="266">    │ │ └── wrappy@1.0.2 </tspan>
<tspan x="10" y="282">    │ ├── inherits@2.0.3 </tspan>
<tspan x="10" y="298">    │ ├─┬ minimatch@3.0.3 </tspan>
<tspan x="10" y="314">    │ │ └─┬ brace-expansion@1.1.7 </tspan>
<tspan x="10" y="330">    │ │   ├── balanced-match@0.4.2 </tspan>
<tspan x="10" y="346">    │ │   └── concat-map@0.0.1 </tspan>
<tspan x="10" y="362">    │ ├── once@1.4.0 </tspan>
<tspan x="10" y="378">    │ └── path-is-absolute@1.0.1 </tspan>
<tspan x="10" y="394">    ├── growl@1.9.2 </tspan>
<tspan x="10" y="410">    ├── json3@3.3.2 </tspan>
<tspan x="10" y="426">    ├─┬ lodash.create@3.1.1 </tspan>
<tspan x="10" y="442">    │ ├─┬ lodash._baseassign@3.2.0 </tspan>
<tspan x="10" y="458">    │ │ ├── lodash._basecopy@3.0.1 </tspan>
<tspan x="10" y="474">    │ │ └─┬ lodash.keys@3.1.2 </tspan>
<tspan x="10" y="490">    │ │   ├── lodash._getnative@3.9.1 </tspan>
<tspan x="10" y="506">    │ │   ├── lodash.isarguments@3.1.0 </tspan>
<tspan x="10" y="522">    │ │   └── lodash.isarray@3.0.4 </tspan>
<tspan x="10" y="538">    │ ├── lodash._basecreate@3.0.3 </tspan>
<tspan x="10" y="554">    │ └── lodash._isiterateecall@3.0.9 </tspan>
<tspan x="10" y="570">    ├─┬ mkdirp@0.5.1 </tspan>
<tspan x="10" y="586">    │ └── minimist@0.0.8 </tspan>
<tspan x="10" y="602">    └─┬ supports-color@3.1.2 </tspan>
<tspan x="10" y="618">      └── has-flag@1.0.0</tspan>
</text>
</svg>
